<svg xmlns="http://www.w3.org/2000/svg" width="25.339" height="20.011"><path d="M5.328.004a5.162 5.162 0 014.158 1.852 8.114 8.114 0 011.559 5.36 16.525 16.525 0 01-4.875 11.82 2.918 2.918 0 01-2.079.975 2.737 2.737 0 01-1.914-.747 2.345 2.345 0 01-.812-1.787 2.31 2.31 0 01.714-1.689 11.051 11.051 0 002.859-4.938 5.408 5.408 0 01-3.574-1.624A5.056 5.056 0 010 5.587a5.542 5.542 0 011.527-4A5.052 5.052 0 015.328.004zm14.294 0a5.162 5.162 0 014.158 1.852 8.114 8.114 0 011.559 5.36 16.525 16.525 0 01-4.869 11.82 2.918 2.918 0 01-2.079.975 2.737 2.737 0 01-1.921-.747 2.345 2.345 0 01-.812-1.787 2.31 2.31 0 01.712-1.689 11.051 11.051 0 002.859-4.938 5.408 5.408 0 01-3.573-1.624 5.056 5.056 0 01-1.364-3.638 5.542 5.542 0 011.527-4A5.052 5.052 0 0119.621.004z" fill="#fff"/></svg>